<svg width="44" height="38" viewBox="0 0 44 38" fill="none" xmlns="http://www.w3.org/2000/svg">
<path d="M18.6117 27.3125C19.5294 28.3021 20.6857 28.7676 22.0807 28.709C23.4757 28.6504 24.4852 28.1057 25.1092 27.075L37.4436 7.125L18.942 20.425C17.9876 21.1375 17.4649 22.2157 17.3738 23.6597C17.2828 25.1037 17.6954 26.3213 18.6117 27.3125ZM6.82795 38C6.02034 38 5.27734 37.8116 4.59895 37.4347C3.92056 37.0579 3.37873 36.4942 2.97346 35.7437C2.01902 33.8833 1.28483 31.954 0.770897 29.9559C0.256965 27.9577 0 25.8891 0 23.75C0 20.4646 0.57854 17.3771 1.73562 14.4875C2.8927 11.5979 4.46166 9.08437 6.4425 6.94687C8.42334 4.80937 10.7544 3.11758 13.4356 1.8715C16.1169 0.625417 18.9802 0.00158333 22.0256 0C25.0358 0 27.8624 0.613542 30.5055 1.84062C33.1486 3.06771 35.4613 4.7405 37.4436 6.859C39.4259 8.9775 41.0044 11.4515 42.1791 14.2809C43.3538 17.1103 43.9595 20.1479 43.9962 23.3937C44.0329 25.5708 43.8038 27.6988 43.309 29.7777C42.8142 31.8567 42.0521 33.8453 41.0227 35.7437C40.6189 36.4958 40.0778 37.0603 39.3994 37.4371C38.7211 37.814 37.9766 38.0016 37.1661 38H6.82795Z" fill="white"/>
</svg>
