<svg width="169" height="27" viewBox="0 0 169 27" fill="none" xmlns="http://www.w3.org/2000/svg">
<path d="M21.76 2.4C24.4 2.4 26.56 4.56 26.56 7.2C26.56 9.856 24.4 12 21.76 12H6.4C3.744 12 1.6 9.856 1.6 7.216C1.6 4.56 3.744 2.4 6.4 2.4H21.76ZM21.76 10.08C23.344 10.08 24.64 8.8 24.64 7.216C24.64 5.616 23.344 4.32 21.76 4.32H6.4C4.8 4.32 3.52 5.616 3.52 7.2C3.52 8.8 4.8 10.08 6.4 10.08H21.76ZM29.7563 7.2C29.7563 4.56 31.9003 2.4 34.5563 2.4H54.7163V4.32H34.5563C32.9563 4.32 31.6763 5.616 31.6763 7.2C31.6763 8.8 32.9563 10.08 34.5563 10.08H54.7163V12H34.5563C31.9003 12 29.7563 9.856 29.7563 7.2ZM79.9925 2.4C81.5765 2.4 82.8725 3.696 82.8725 5.28V6.24H80.9525V5.28C80.9525 4.752 80.5205 4.32 79.9925 4.32H71.3525V12H69.4325V4.32H57.9125V2.4H79.9925ZM108.149 2.4C109.733 2.4 111.029 3.696 111.029 5.28V12H109.109V5.28C109.109 4.752 108.677 4.32 108.149 4.32H88.9488C88.4048 4.32 87.9888 4.752 87.9888 5.28V6.24H103.349V8.16H87.9888V12H86.0688V5.28C86.0688 3.696 87.3488 2.4 88.9488 2.4H108.149ZM137.265 7.2V2.4H139.185V7.2C139.185 9.856 137.025 12 134.385 12H124.049C122.945 12 121.953 11.392 121.473 10.416L118.417 4.32H116.145V12H114.225V4.32C114.225 3.264 115.073 2.4 116.145 2.4H118.417C119.153 2.4 119.809 2.816 120.145 3.472L123.185 9.552C123.345 9.888 123.681 10.08 124.049 10.08H134.385C135.969 10.08 137.265 8.8 137.265 7.2ZM142.381 5.28C142.381 3.696 143.661 2.4 145.261 2.4H167.341V4.32H145.261C144.717 4.32 144.301 4.752 144.301 5.28V6.24H159.661V8.16H144.301V9.12C144.301 9.664 144.717 10.08 145.261 10.08H167.341V12H145.261C143.661 12 142.381 10.72 142.381 9.12V5.28Z" fill="white"/>
<path d="M73.345 26.18C72.515 26.18 71.745 26.045 71.035 25.775C70.335 25.505 69.725 25.125 69.205 24.635C68.695 24.145 68.295 23.57 68.005 22.91C67.725 22.25 67.585 21.53 67.585 20.75C67.585 19.97 67.725 19.25 68.005 18.59C68.295 17.93 68.7 17.355 69.22 16.865C69.74 16.375 70.35 15.995 71.05 15.725C71.75 15.455 72.51 15.32 73.33 15.32C74.16 15.32 74.92 15.455 75.61 15.725C76.31 15.995 76.915 16.375 77.425 16.865C77.945 17.355 78.35 17.93 78.64 18.59C78.93 19.24 79.075 19.96 79.075 20.75C79.075 21.53 78.93 22.255 78.64 22.925C78.35 23.585 77.945 24.16 77.425 24.65C76.915 25.13 76.31 25.505 75.61 25.775C74.92 26.045 74.165 26.18 73.345 26.18ZM73.33 24.11C73.8 24.11 74.23 24.03 74.62 23.87C75.02 23.71 75.37 23.48 75.67 23.18C75.97 22.88 76.2 22.525 76.36 22.115C76.53 21.705 76.615 21.25 76.615 20.75C76.615 20.25 76.53 19.795 76.36 19.385C76.2 18.975 75.97 18.62 75.67 18.32C75.38 18.02 75.035 17.79 74.635 17.63C74.235 17.47 73.8 17.39 73.33 17.39C72.86 17.39 72.425 17.47 72.025 17.63C71.635 17.79 71.29 18.02 70.99 18.32C70.69 18.62 70.455 18.975 70.285 19.385C70.125 19.795 70.045 20.25 70.045 20.75C70.045 21.24 70.125 21.695 70.285 22.115C70.455 22.525 70.685 22.88 70.975 23.18C71.275 23.48 71.625 23.71 72.025 23.87C72.425 24.03 72.86 24.11 73.33 24.11ZM80.9013 26V15.5H82.9113L89.1063 23.06H88.1312V15.5H90.5313V26H88.5363L82.3263 18.44H83.3013V26H80.9013ZM95.2505 19.73H100.306V21.62H95.2505V19.73ZM95.4305 24.05H101.146V26H93.0155V15.5H100.951V17.45H95.4305V24.05Z" fill="#E30220"/>
</svg>
