<svg width="892" height="894" viewBox="0 0 892 894" fill="none" xmlns="http://www.w3.org/2000/svg">
<path d="M825 451.5H597" stroke="#E30220" stroke-opacity="0.2" stroke-width="3"/>
<path d="M296 451.5H68" stroke="#E30220" stroke-opacity="0.2" stroke-width="3"/>
<circle cx="446" cy="447" r="149.5" stroke="#E30220" stroke-opacity="0.2" stroke-width="3"/>
<path d="M446 68.5C654.484 68.5 823.5 237.956 823.5 447C823.5 656.044 654.484 825.5 446 825.5C237.516 825.5 68.5 656.044 68.5 447C68.5 237.956 237.516 68.5 446 68.5Z" stroke="#E30220" stroke-opacity="0.2" stroke-width="3"/>
<path d="M446 1.5C691.487 1.5 890.5 200.954 890.5 447C890.5 693.046 691.487 892.5 446 892.5C200.513 892.5 1.5 693.046 1.5 447C1.5 200.954 200.513 1.5 446 1.5Z" stroke="#E30220" stroke-opacity="0.2" stroke-width="3"/>
</svg>
